<svg id="Capa_1" data-name="Capa 1" xmlns="http://www.w3.org/2000/svg" viewBox="0 0 113.39 113.39"><defs><style>.cls-1{fill:#fff;}</style></defs><path class="cls-1" d="M59.44,59.68c-.09,0-.24.09-.45.28A3.14,3.14,0,0,0,58.23,61a1.88,1.88,0,0,0-.2,1.07c0,.19.11.29.19.29H81.33l-2.61,5.87h-26a1.79,1.79,0,0,1-1.93-1.6,5.78,5.78,0,0,1,.6-3.49L57.15,50.3a10.31,10.31,0,0,1,2.49-3.49A5.12,5.12,0,0,1,63,45.21H89l-2.61,5.87H63.26c-.09,0-.23.1-.44.29a3.07,3.07,0,0,0-.76,1.07,1.84,1.84,0,0,0-.2,1.08c0,.19.1.29.19.29H85.16l-2.62,5.87Z"/><polygon class="cls-1" points="57.13 45.21 50.23 60.72 41.71 45.21 35.13 45.21 24.87 68.27 30.73 68.27 37.63 52.76 46.15 68.27 52.73 68.27 63 45.21 57.13 45.21"/><path class="cls-1" d="M40.47,96A42.53,42.53,0,1,1,75.05,18.33l-2.39,5a36.63,36.63,0,0,0-16-3.61A37,37,0,0,0,42.57,90.9Z"/><path class="cls-1" d="M56.69,99.21A42.31,42.31,0,0,1,40.47,96l2.1-5.1A37,37,0,0,0,93.7,56.69a37.23,37.23,0,0,0-21-33.39l2.39-5A42.53,42.53,0,0,1,56.69,99.21Z"/></svg>